<svg width="65" height="64" viewBox="0 0 65 64" fill="none" xmlns="http://www.w3.org/2000/svg">
<path d="M1.5 32C1.5 14.8792 15.3792 1 32.5 1C49.6208 1 63.5 14.8792 63.5 32C63.5 49.1208 49.6208 63 32.5 63C15.3792 63 1.5 49.1208 1.5 32Z" stroke="white" stroke-width="2"/>
<path d="M1.5 32C1.5 14.8792 15.3792 1 32.5 1C49.6208 1 63.5 14.8792 63.5 32C63.5 49.1208 49.6208 63 32.5 63C15.3792 63 1.5 49.1208 1.5 32Z" stroke="url(#paint0_radial_9207_49831)" stroke-width="2"/>
<path d="M1.5 32C1.5 14.8792 15.3792 1 32.5 1C49.6208 1 63.5 14.8792 63.5 32C63.5 49.1208 49.6208 63 32.5 63C15.3792 63 1.5 49.1208 1.5 32Z" stroke="url(#paint1_radial_9207_49831)" stroke-width="2"/>
<path d="M1.5 32C1.5 14.8792 15.3792 1 32.5 1C49.6208 1 63.5 14.8792 63.5 32C63.5 49.1208 49.6208 63 32.5 63C15.3792 63 1.5 49.1208 1.5 32Z" stroke="url(#paint2_radial_9207_49831)" stroke-width="2"/>
<path d="M1.5 32C1.5 14.8792 15.3792 1 32.5 1C49.6208 1 63.5 14.8792 63.5 32C63.5 49.1208 49.6208 63 32.5 63C15.3792 63 1.5 49.1208 1.5 32Z" stroke="url(#paint3_radial_9207_49831)" stroke-opacity="0.2" stroke-width="2"/>
<path d="M33 32C36.866 32 40 28.866 40 25C40 21.134 36.866 18 33 18C29.134 18 26 21.134 26 25C26 28.866 29.134 32 33 32ZM33 32C26.3726 32 21 37.3726 21 44M33 32C39.6274 32 45 37.3726 45 44" stroke="white" stroke-width="2" stroke-linecap="round" stroke-linejoin="round"/>
<path d="M33 32C36.866 32 40 28.866 40 25C40 21.134 36.866 18 33 18C29.134 18 26 21.134 26 25C26 28.866 29.134 32 33 32ZM33 32C26.3726 32 21 37.3726 21 44M33 32C39.6274 32 45 37.3726 45 44" stroke="url(#paint4_radial_9207_49831)" stroke-width="2" stroke-linecap="round" stroke-linejoin="round"/>
<path d="M33 32C36.866 32 40 28.866 40 25C40 21.134 36.866 18 33 18C29.134 18 26 21.134 26 25C26 28.866 29.134 32 33 32ZM33 32C26.3726 32 21 37.3726 21 44M33 32C39.6274 32 45 37.3726 45 44" stroke="url(#paint5_radial_9207_49831)" stroke-width="2" stroke-linecap="round" stroke-linejoin="round"/>
<path d="M33 32C36.866 32 40 28.866 40 25C40 21.134 36.866 18 33 18C29.134 18 26 21.134 26 25C26 28.866 29.134 32 33 32ZM33 32C26.3726 32 21 37.3726 21 44M33 32C39.6274 32 45 37.3726 45 44" stroke="url(#paint6_radial_9207_49831)" stroke-width="2" stroke-linecap="round" stroke-linejoin="round"/>
<path d="M33 32C36.866 32 40 28.866 40 25C40 21.134 36.866 18 33 18C29.134 18 26 21.134 26 25C26 28.866 29.134 32 33 32ZM33 32C26.3726 32 21 37.3726 21 44M33 32C39.6274 32 45 37.3726 45 44" stroke="url(#paint7_radial_9207_49831)" stroke-opacity="0.2" stroke-width="2" stroke-linecap="round" stroke-linejoin="round"/>
<defs>
<radialGradient id="paint0_radial_9207_49831" cx="0" cy="0" r="1" gradientUnits="userSpaceOnUse" gradientTransform="translate(67.7727 -10) rotate(132.274) scale(100.008 85.1944)">
<stop stop-color="#00BFA5" stop-opacity="0.06"/>
<stop offset="0.422699" stop-color="#00BFA5" stop-opacity="0.8"/>
<stop offset="1" stop-color="#00BFA5" stop-opacity="0.8"/>
</radialGradient>
<radialGradient id="paint1_radial_9207_49831" cx="0" cy="0" r="1" gradientUnits="userSpaceOnUse" gradientTransform="translate(22.1364 70) rotate(-48.4127) scale(56.1539 66.5962)">
<stop stop-color="#0075FF" stop-opacity="0.8"/>
<stop offset="1" stop-color="#0075FF" stop-opacity="0"/>
</radialGradient>
<radialGradient id="paint2_radial_9207_49831" cx="0" cy="0" r="1" gradientUnits="userSpaceOnUse" gradientTransform="translate(13.4091 -14.5) rotate(93.8811) scale(67.154 54.7052)">
<stop stop-color="#B8FF20"/>
<stop offset="1" stop-color="white" stop-opacity="0.2"/>
</radialGradient>
<radialGradient id="paint3_radial_9207_49831" cx="0" cy="0" r="1" gradientUnits="userSpaceOnUse" gradientTransform="translate(32.5 11) rotate(90) scale(53 70.5455)">
<stop stop-color="white"/>
<stop offset="1" stop-color="white" stop-opacity="0.2"/>
</radialGradient>
<radialGradient id="paint4_radial_9207_49831" cx="0" cy="0" r="1" gradientUnits="userSpaceOnUse" gradientTransform="translate(46.2273 13.9375) rotate(130.002) scale(39.245 33.074)">
<stop stop-color="#00BFA5" stop-opacity="0.06"/>
<stop offset="0.422699" stop-color="#00BFA5" stop-opacity="0.8"/>
<stop offset="1" stop-color="#00BFA5" stop-opacity="0.8"/>
</radialGradient>
<radialGradient id="paint5_radial_9207_49831" cx="0" cy="0" r="1" gradientUnits="userSpaceOnUse" gradientTransform="translate(29.1136 46.4375) rotate(-50.6763) scale(22.0566 25.8295)">
<stop stop-color="#0075FF" stop-opacity="0.8"/>
<stop offset="1" stop-color="#0075FF" stop-opacity="0"/>
</radialGradient>
<radialGradient id="paint6_radial_9207_49831" cx="0" cy="0" r="1" gradientUnits="userSpaceOnUse" gradientTransform="translate(25.8409 12.1094) rotate(93.5834) scale(27.2721 20.5214)">
<stop stop-color="#B8FF20"/>
<stop offset="1" stop-color="white" stop-opacity="0.2"/>
</radialGradient>
<radialGradient id="paint7_radial_9207_49831" cx="0" cy="0" r="1" gradientUnits="userSpaceOnUse" gradientTransform="translate(33 22.4688) rotate(90) scale(21.5312 26.4545)">
<stop stop-color="white"/>
<stop offset="1" stop-color="white" stop-opacity="0.2"/>
</radialGradient>
</defs>
</svg>
