<svg width="65" height="64" viewBox="0 0 65 64" fill="none" xmlns="http://www.w3.org/2000/svg">
<path d="M1.5 32C1.5 14.8792 15.3792 1 32.5 1C49.6208 1 63.5 14.8792 63.5 32C63.5 49.1208 49.6208 63 32.5 63C15.3792 63 1.5 49.1208 1.5 32Z" stroke="white" stroke-width="2"/>
<path d="M1.5 32C1.5 14.8792 15.3792 1 32.5 1C49.6208 1 63.5 14.8792 63.5 32C63.5 49.1208 49.6208 63 32.5 63C15.3792 63 1.5 49.1208 1.5 32Z" stroke="url(#paint0_radial_9207_49845)" stroke-width="2"/>
<path d="M1.5 32C1.5 14.8792 15.3792 1 32.5 1C49.6208 1 63.5 14.8792 63.5 32C63.5 49.1208 49.6208 63 32.5 63C15.3792 63 1.5 49.1208 1.5 32Z" stroke="url(#paint1_radial_9207_49845)" stroke-width="2"/>
<path d="M1.5 32C1.5 14.8792 15.3792 1 32.5 1C49.6208 1 63.5 14.8792 63.5 32C63.5 49.1208 49.6208 63 32.5 63C15.3792 63 1.5 49.1208 1.5 32Z" stroke="url(#paint2_radial_9207_49845)" stroke-width="2"/>
<path d="M1.5 32C1.5 14.8792 15.3792 1 32.5 1C49.6208 1 63.5 14.8792 63.5 32C63.5 49.1208 49.6208 63 32.5 63C15.3792 63 1.5 49.1208 1.5 32Z" stroke="url(#paint3_radial_9207_49845)" stroke-opacity="0.2" stroke-width="2"/>
<path fill-rule="evenodd" clip-rule="evenodd" d="M30 15C26.6863 15 24 17.6863 24 21C24 23.2812 25.273 25.265 27.1474 26.2798C27.0505 26.8387 27 27.4134 27 28C27 28.4708 27.0326 28.934 27.0956 29.3875C22.4297 30.6615 19 34.9302 19 40C19 40.5523 18.5523 41 18 41C17.4477 41 17 40.5523 17 40C17 34.3345 20.6241 29.5155 25.6805 27.7348C23.4666 26.312 22 23.8272 22 21C22 16.5817 25.5817 13 30 13C33.3607 13 36.2374 15.0723 37.422 18.0087C37.2821 18.0029 37.1414 18 37 18C36.4134 18 35.8387 18.0505 35.2798 18.1474C34.265 16.273 32.2812 15 30 15Z" fill="white"/>
<path fill-rule="evenodd" clip-rule="evenodd" d="M30 15C26.6863 15 24 17.6863 24 21C24 23.2812 25.273 25.265 27.1474 26.2798C27.0505 26.8387 27 27.4134 27 28C27 28.4708 27.0326 28.934 27.0956 29.3875C22.4297 30.6615 19 34.9302 19 40C19 40.5523 18.5523 41 18 41C17.4477 41 17 40.5523 17 40C17 34.3345 20.6241 29.5155 25.6805 27.7348C23.4666 26.312 22 23.8272 22 21C22 16.5817 25.5817 13 30 13C33.3607 13 36.2374 15.0723 37.422 18.0087C37.2821 18.0029 37.1414 18 37 18C36.4134 18 35.8387 18.0505 35.2798 18.1474C34.265 16.273 32.2812 15 30 15Z" fill="url(#paint4_radial_9207_49845)"/>
<path fill-rule="evenodd" clip-rule="evenodd" d="M30 15C26.6863 15 24 17.6863 24 21C24 23.2812 25.273 25.265 27.1474 26.2798C27.0505 26.8387 27 27.4134 27 28C27 28.4708 27.0326 28.934 27.0956 29.3875C22.4297 30.6615 19 34.9302 19 40C19 40.5523 18.5523 41 18 41C17.4477 41 17 40.5523 17 40C17 34.3345 20.6241 29.5155 25.6805 27.7348C23.4666 26.312 22 23.8272 22 21C22 16.5817 25.5817 13 30 13C33.3607 13 36.2374 15.0723 37.422 18.0087C37.2821 18.0029 37.1414 18 37 18C36.4134 18 35.8387 18.0505 35.2798 18.1474C34.265 16.273 32.2812 15 30 15Z" fill="url(#paint5_radial_9207_49845)"/>
<path fill-rule="evenodd" clip-rule="evenodd" d="M30 15C26.6863 15 24 17.6863 24 21C24 23.2812 25.273 25.265 27.1474 26.2798C27.0505 26.8387 27 27.4134 27 28C27 28.4708 27.0326 28.934 27.0956 29.3875C22.4297 30.6615 19 34.9302 19 40C19 40.5523 18.5523 41 18 41C17.4477 41 17 40.5523 17 40C17 34.3345 20.6241 29.5155 25.6805 27.7348C23.4666 26.312 22 23.8272 22 21C22 16.5817 25.5817 13 30 13C33.3607 13 36.2374 15.0723 37.422 18.0087C37.2821 18.0029 37.1414 18 37 18C36.4134 18 35.8387 18.0505 35.2798 18.1474C34.265 16.273 32.2812 15 30 15Z" fill="url(#paint6_radial_9207_49845)"/>
<path fill-rule="evenodd" clip-rule="evenodd" d="M30 15C26.6863 15 24 17.6863 24 21C24 23.2812 25.273 25.265 27.1474 26.2798C27.0505 26.8387 27 27.4134 27 28C27 28.4708 27.0326 28.934 27.0956 29.3875C22.4297 30.6615 19 34.9302 19 40C19 40.5523 18.5523 41 18 41C17.4477 41 17 40.5523 17 40C17 34.3345 20.6241 29.5155 25.6805 27.7348C23.4666 26.312 22 23.8272 22 21C22 16.5817 25.5817 13 30 13C33.3607 13 36.2374 15.0723 37.422 18.0087C37.2821 18.0029 37.1414 18 37 18C36.4134 18 35.8387 18.0505 35.2798 18.1474C34.265 16.273 32.2812 15 30 15Z" fill="url(#paint7_radial_9207_49845)" fill-opacity="0.2"/>
<path fill-rule="evenodd" clip-rule="evenodd" d="M37 22C33.6863 22 31 24.6863 31 28C31 31.3137 33.6863 34 37 34C40.3137 34 43 31.3137 43 28C43 24.6863 40.3137 22 37 22ZM41.3195 34.7348C43.5334 33.312 45 30.8272 45 28C45 23.5817 41.4183 20 37 20C32.5817 20 29 23.5817 29 28C29 30.8272 30.4666 33.312 32.6805 34.7348C27.6241 36.5155 24 41.3345 24 47C24 47.5523 24.4477 48 25 48C25.5523 48 26 47.5523 26 47C26 40.9249 30.9249 36 37 36C43.0751 36 48 40.9249 48 47C48 47.5523 48.4477 48 49 48C49.5523 48 50 47.5523 50 47C50 41.3345 46.3759 36.5155 41.3195 34.7348Z" fill="white"/>
<path fill-rule="evenodd" clip-rule="evenodd" d="M37 22C33.6863 22 31 24.6863 31 28C31 31.3137 33.6863 34 37 34C40.3137 34 43 31.3137 43 28C43 24.6863 40.3137 22 37 22ZM41.3195 34.7348C43.5334 33.312 45 30.8272 45 28C45 23.5817 41.4183 20 37 20C32.5817 20 29 23.5817 29 28C29 30.8272 30.4666 33.312 32.6805 34.7348C27.6241 36.5155 24 41.3345 24 47C24 47.5523 24.4477 48 25 48C25.5523 48 26 47.5523 26 47C26 40.9249 30.9249 36 37 36C43.0751 36 48 40.9249 48 47C48 47.5523 48.4477 48 49 48C49.5523 48 50 47.5523 50 47C50 41.3345 46.3759 36.5155 41.3195 34.7348Z" fill="url(#paint8_radial_9207_49845)"/>
<path fill-rule="evenodd" clip-rule="evenodd" d="M37 22C33.6863 22 31 24.6863 31 28C31 31.3137 33.6863 34 37 34C40.3137 34 43 31.3137 43 28C43 24.6863 40.3137 22 37 22ZM41.3195 34.7348C43.5334 33.312 45 30.8272 45 28C45 23.5817 41.4183 20 37 20C32.5817 20 29 23.5817 29 28C29 30.8272 30.4666 33.312 32.6805 34.7348C27.6241 36.5155 24 41.3345 24 47C24 47.5523 24.4477 48 25 48C25.5523 48 26 47.5523 26 47C26 40.9249 30.9249 36 37 36C43.0751 36 48 40.9249 48 47C48 47.5523 48.4477 48 49 48C49.5523 48 50 47.5523 50 47C50 41.3345 46.3759 36.5155 41.3195 34.7348Z" fill="url(#paint9_radial_9207_49845)"/>
<path fill-rule="evenodd" clip-rule="evenodd" d="M37 22C33.6863 22 31 24.6863 31 28C31 31.3137 33.6863 34 37 34C40.3137 34 43 31.3137 43 28C43 24.6863 40.3137 22 37 22ZM41.3195 34.7348C43.5334 33.312 45 30.8272 45 28C45 23.5817 41.4183 20 37 20C32.5817 20 29 23.5817 29 28C29 30.8272 30.4666 33.312 32.6805 34.7348C27.6241 36.5155 24 41.3345 24 47C24 47.5523 24.4477 48 25 48C25.5523 48 26 47.5523 26 47C26 40.9249 30.9249 36 37 36C43.0751 36 48 40.9249 48 47C48 47.5523 48.4477 48 49 48C49.5523 48 50 47.5523 50 47C50 41.3345 46.3759 36.5155 41.3195 34.7348Z" fill="url(#paint10_radial_9207_49845)"/>
<path fill-rule="evenodd" clip-rule="evenodd" d="M37 22C33.6863 22 31 24.6863 31 28C31 31.3137 33.6863 34 37 34C40.3137 34 43 31.3137 43 28C43 24.6863 40.3137 22 37 22ZM41.3195 34.7348C43.5334 33.312 45 30.8272 45 28C45 23.5817 41.4183 20 37 20C32.5817 20 29 23.5817 29 28C29 30.8272 30.4666 33.312 32.6805 34.7348C27.6241 36.5155 24 41.3345 24 47C24 47.5523 24.4477 48 25 48C25.5523 48 26 47.5523 26 47C26 40.9249 30.9249 36 37 36C43.0751 36 48 40.9249 48 47C48 47.5523 48.4477 48 49 48C49.5523 48 50 47.5523 50 47C50 41.3345 46.3759 36.5155 41.3195 34.7348Z" fill="url(#paint11_radial_9207_49845)" fill-opacity="0.2"/>
<defs>
<radialGradient id="paint0_radial_9207_49845" cx="0" cy="0" r="1" gradientUnits="userSpaceOnUse" gradientTransform="translate(67.7727 -10) rotate(132.274) scale(100.008 85.1944)">
<stop stop-color="#00BFA5" stop-opacity="0.06"/>
<stop offset="0.422699" stop-color="#00BFA5" stop-opacity="0.8"/>
<stop offset="1" stop-color="#00BFA5" stop-opacity="0.8"/>
</radialGradient>
<radialGradient id="paint1_radial_9207_49845" cx="0" cy="0" r="1" gradientUnits="userSpaceOnUse" gradientTransform="translate(22.1364 70) rotate(-48.4127) scale(56.1539 66.5962)">
<stop stop-color="#0075FF" stop-opacity="0.8"/>
<stop offset="1" stop-color="#0075FF" stop-opacity="0"/>
</radialGradient>
<radialGradient id="paint2_radial_9207_49845" cx="0" cy="0" r="1" gradientUnits="userSpaceOnUse" gradientTransform="translate(13.4091 -14.5) rotate(93.8811) scale(67.154 54.7052)">
<stop stop-color="#B8FF20"/>
<stop offset="1" stop-color="white" stop-opacity="0.2"/>
</radialGradient>
<radialGradient id="paint3_radial_9207_49845" cx="0" cy="0" r="1" gradientUnits="userSpaceOnUse" gradientTransform="translate(32.5 11) rotate(90) scale(53 70.5455)">
<stop stop-color="white"/>
<stop offset="1" stop-color="white" stop-opacity="0.2"/>
</radialGradient>
<radialGradient id="paint4_radial_9207_49845" cx="0" cy="0" r="1" gradientUnits="userSpaceOnUse" gradientTransform="translate(38.4663 8.625) rotate(123.546) scale(38.8451 30.6201)">
<stop stop-color="#00BFA5" stop-opacity="0.06"/>
<stop offset="0.422699" stop-color="#00BFA5" stop-opacity="0.8"/>
<stop offset="1" stop-color="#00BFA5" stop-opacity="0.8"/>
</radialGradient>
<radialGradient id="paint5_radial_9207_49845" cx="0" cy="0" r="1" gradientUnits="userSpaceOnUse" gradientTransform="translate(23.904 43.625) rotate(-57.0864) scale(21.8883 23.8514)">
<stop stop-color="#0075FF" stop-opacity="0.8"/>
<stop offset="1" stop-color="#0075FF" stop-opacity="0"/>
</radialGradient>
<radialGradient id="paint6_radial_9207_49845" cx="0" cy="0" r="1" gradientUnits="userSpaceOnUse" gradientTransform="translate(21.1192 6.65625) rotate(92.8328) scale(29.3484 17.4749)">
<stop stop-color="#B8FF20"/>
<stop offset="1" stop-color="white" stop-opacity="0.2"/>
</radialGradient>
<radialGradient id="paint7_radial_9207_49845" cx="0" cy="0" r="1" gradientUnits="userSpaceOnUse" gradientTransform="translate(27.211 17.8125) rotate(90) scale(23.1875 22.5106)">
<stop stop-color="white"/>
<stop offset="1" stop-color="white" stop-opacity="0.2"/>
</radialGradient>
<radialGradient id="paint8_radial_9207_49845" cx="0" cy="0" r="1" gradientUnits="userSpaceOnUse" gradientTransform="translate(51.3295 15.625) rotate(130.17) scale(42.368 35.7421)">
<stop stop-color="#00BFA5" stop-opacity="0.06"/>
<stop offset="0.422699" stop-color="#00BFA5" stop-opacity="0.8"/>
<stop offset="1" stop-color="#00BFA5" stop-opacity="0.8"/>
</radialGradient>
<radialGradient id="paint9_radial_9207_49845" cx="0" cy="0" r="1" gradientUnits="userSpaceOnUse" gradientTransform="translate(32.7898 50.625) rotate(-50.5095) scale(23.8101 27.9151)">
<stop stop-color="#0075FF" stop-opacity="0.8"/>
<stop offset="1" stop-color="#0075FF" stop-opacity="0"/>
</radialGradient>
<radialGradient id="paint10_radial_9207_49845" cx="0" cy="0" r="1" gradientUnits="userSpaceOnUse" gradientTransform="translate(29.2443 13.6563) rotate(93.6047) scale(29.3706 22.231)">
<stop stop-color="#B8FF20"/>
<stop offset="1" stop-color="white" stop-opacity="0.2"/>
</radialGradient>
<radialGradient id="paint11_radial_9207_49845" cx="0" cy="0" r="1" gradientUnits="userSpaceOnUse" gradientTransform="translate(37 24.8125) rotate(90) scale(23.1875 28.6591)">
<stop stop-color="white"/>
<stop offset="1" stop-color="white" stop-opacity="0.2"/>
</radialGradient>
</defs>
</svg>
