<svg width="65" height="64" viewBox="0 0 65 64" fill="none" xmlns="http://www.w3.org/2000/svg">
<path d="M1.5 32C1.5 14.8792 15.3792 1 32.5 1C49.6208 1 63.5 14.8792 63.5 32C63.5 49.1208 49.6208 63 32.5 63C15.3792 63 1.5 49.1208 1.5 32Z" stroke="white" stroke-width="2"/>
<path d="M1.5 32C1.5 14.8792 15.3792 1 32.5 1C49.6208 1 63.5 14.8792 63.5 32C63.5 49.1208 49.6208 63 32.5 63C15.3792 63 1.5 49.1208 1.5 32Z" stroke="url(#paint0_radial_9207_49864)" stroke-width="2"/>
<path d="M1.5 32C1.5 14.8792 15.3792 1 32.5 1C49.6208 1 63.5 14.8792 63.5 32C63.5 49.1208 49.6208 63 32.5 63C15.3792 63 1.5 49.1208 1.5 32Z" stroke="url(#paint1_radial_9207_49864)" stroke-width="2"/>
<path d="M1.5 32C1.5 14.8792 15.3792 1 32.5 1C49.6208 1 63.5 14.8792 63.5 32C63.5 49.1208 49.6208 63 32.5 63C15.3792 63 1.5 49.1208 1.5 32Z" stroke="url(#paint2_radial_9207_49864)" stroke-width="2"/>
<path d="M1.5 32C1.5 14.8792 15.3792 1 32.5 1C49.6208 1 63.5 14.8792 63.5 32C63.5 49.1208 49.6208 63 32.5 63C15.3792 63 1.5 49.1208 1.5 32Z" stroke="url(#paint3_radial_9207_49864)" stroke-opacity="0.2" stroke-width="2"/>
<path fill-rule="evenodd" clip-rule="evenodd" d="M25 18C21.6863 18 19 20.6863 19 24C19 26.2812 20.273 28.265 22.1474 29.2798C22.0505 29.8387 22 30.4134 22 31C22 31.4708 22.0326 31.934 22.0956 32.3875C17.4297 33.6615 14 37.9302 14 43C14 43.5523 13.5523 44 13 44C12.4477 44 12 43.5523 12 43C12 37.3345 15.6241 32.5155 20.6805 30.7348C18.4666 29.312 17 26.8272 17 24C17 19.5817 20.5817 16 25 16C28.3607 16 31.2374 18.0723 32.422 21.0087C32.2821 21.0029 32.1414 21 32 21C31.4134 21 30.8387 21.0505 30.2798 21.1474C29.265 19.273 27.2812 18 25 18Z" fill="white"/>
<path fill-rule="evenodd" clip-rule="evenodd" d="M25 18C21.6863 18 19 20.6863 19 24C19 26.2812 20.273 28.265 22.1474 29.2798C22.0505 29.8387 22 30.4134 22 31C22 31.4708 22.0326 31.934 22.0956 32.3875C17.4297 33.6615 14 37.9302 14 43C14 43.5523 13.5523 44 13 44C12.4477 44 12 43.5523 12 43C12 37.3345 15.6241 32.5155 20.6805 30.7348C18.4666 29.312 17 26.8272 17 24C17 19.5817 20.5817 16 25 16C28.3607 16 31.2374 18.0723 32.422 21.0087C32.2821 21.0029 32.1414 21 32 21C31.4134 21 30.8387 21.0505 30.2798 21.1474C29.265 19.273 27.2812 18 25 18Z" fill="url(#paint4_radial_9207_49864)"/>
<path fill-rule="evenodd" clip-rule="evenodd" d="M25 18C21.6863 18 19 20.6863 19 24C19 26.2812 20.273 28.265 22.1474 29.2798C22.0505 29.8387 22 30.4134 22 31C22 31.4708 22.0326 31.934 22.0956 32.3875C17.4297 33.6615 14 37.9302 14 43C14 43.5523 13.5523 44 13 44C12.4477 44 12 43.5523 12 43C12 37.3345 15.6241 32.5155 20.6805 30.7348C18.4666 29.312 17 26.8272 17 24C17 19.5817 20.5817 16 25 16C28.3607 16 31.2374 18.0723 32.422 21.0087C32.2821 21.0029 32.1414 21 32 21C31.4134 21 30.8387 21.0505 30.2798 21.1474C29.265 19.273 27.2812 18 25 18Z" fill="url(#paint5_radial_9207_49864)"/>
<path fill-rule="evenodd" clip-rule="evenodd" d="M25 18C21.6863 18 19 20.6863 19 24C19 26.2812 20.273 28.265 22.1474 29.2798C22.0505 29.8387 22 30.4134 22 31C22 31.4708 22.0326 31.934 22.0956 32.3875C17.4297 33.6615 14 37.9302 14 43C14 43.5523 13.5523 44 13 44C12.4477 44 12 43.5523 12 43C12 37.3345 15.6241 32.5155 20.6805 30.7348C18.4666 29.312 17 26.8272 17 24C17 19.5817 20.5817 16 25 16C28.3607 16 31.2374 18.0723 32.422 21.0087C32.2821 21.0029 32.1414 21 32 21C31.4134 21 30.8387 21.0505 30.2798 21.1474C29.265 19.273 27.2812 18 25 18Z" fill="url(#paint6_radial_9207_49864)"/>
<path fill-rule="evenodd" clip-rule="evenodd" d="M25 18C21.6863 18 19 20.6863 19 24C19 26.2812 20.273 28.265 22.1474 29.2798C22.0505 29.8387 22 30.4134 22 31C22 31.4708 22.0326 31.934 22.0956 32.3875C17.4297 33.6615 14 37.9302 14 43C14 43.5523 13.5523 44 13 44C12.4477 44 12 43.5523 12 43C12 37.3345 15.6241 32.5155 20.6805 30.7348C18.4666 29.312 17 26.8272 17 24C17 19.5817 20.5817 16 25 16C28.3607 16 31.2374 18.0723 32.422 21.0087C32.2821 21.0029 32.1414 21 32 21C31.4134 21 30.8387 21.0505 30.2798 21.1474C29.265 19.273 27.2812 18 25 18Z" fill="url(#paint7_radial_9207_49864)" fill-opacity="0.2"/>
<path fill-rule="evenodd" clip-rule="evenodd" d="M32 25C28.6863 25 26 27.6863 26 31C26 34.3137 28.6863 37 32 37C35.3137 37 38 34.3137 38 31C38 27.6863 35.3137 25 32 25ZM36.3195 37.7348C38.5334 36.312 40 33.8272 40 31C40 26.5817 36.4183 23 32 23C27.5817 23 24 26.5817 24 31C24 33.8272 25.4666 36.312 27.6805 37.7348C22.6241 39.5155 19 44.3345 19 50C19 50.5523 19.4477 51 20 51C20.5523 51 21 50.5523 21 50C21 43.9249 25.9249 39 32 39C38.0751 39 43 43.9249 43 50C43 50.5523 43.4477 51 44 51C44.5523 51 45 50.5523 45 50C45 44.3345 41.3759 39.5155 36.3195 37.7348Z" fill="white"/>
<path fill-rule="evenodd" clip-rule="evenodd" d="M32 25C28.6863 25 26 27.6863 26 31C26 34.3137 28.6863 37 32 37C35.3137 37 38 34.3137 38 31C38 27.6863 35.3137 25 32 25ZM36.3195 37.7348C38.5334 36.312 40 33.8272 40 31C40 26.5817 36.4183 23 32 23C27.5817 23 24 26.5817 24 31C24 33.8272 25.4666 36.312 27.6805 37.7348C22.6241 39.5155 19 44.3345 19 50C19 50.5523 19.4477 51 20 51C20.5523 51 21 50.5523 21 50C21 43.9249 25.9249 39 32 39C38.0751 39 43 43.9249 43 50C43 50.5523 43.4477 51 44 51C44.5523 51 45 50.5523 45 50C45 44.3345 41.3759 39.5155 36.3195 37.7348Z" fill="url(#paint8_radial_9207_49864)"/>
<path fill-rule="evenodd" clip-rule="evenodd" d="M32 25C28.6863 25 26 27.6863 26 31C26 34.3137 28.6863 37 32 37C35.3137 37 38 34.3137 38 31C38 27.6863 35.3137 25 32 25ZM36.3195 37.7348C38.5334 36.312 40 33.8272 40 31C40 26.5817 36.4183 23 32 23C27.5817 23 24 26.5817 24 31C24 33.8272 25.4666 36.312 27.6805 37.7348C22.6241 39.5155 19 44.3345 19 50C19 50.5523 19.4477 51 20 51C20.5523 51 21 50.5523 21 50C21 43.9249 25.9249 39 32 39C38.0751 39 43 43.9249 43 50C43 50.5523 43.4477 51 44 51C44.5523 51 45 50.5523 45 50C45 44.3345 41.3759 39.5155 36.3195 37.7348Z" fill="url(#paint9_radial_9207_49864)"/>
<path fill-rule="evenodd" clip-rule="evenodd" d="M32 25C28.6863 25 26 27.6863 26 31C26 34.3137 28.6863 37 32 37C35.3137 37 38 34.3137 38 31C38 27.6863 35.3137 25 32 25ZM36.3195 37.7348C38.5334 36.312 40 33.8272 40 31C40 26.5817 36.4183 23 32 23C27.5817 23 24 26.5817 24 31C24 33.8272 25.4666 36.312 27.6805 37.7348C22.6241 39.5155 19 44.3345 19 50C19 50.5523 19.4477 51 20 51C20.5523 51 21 50.5523 21 50C21 43.9249 25.9249 39 32 39C38.0751 39 43 43.9249 43 50C43 50.5523 43.4477 51 44 51C44.5523 51 45 50.5523 45 50C45 44.3345 41.3759 39.5155 36.3195 37.7348Z" fill="url(#paint10_radial_9207_49864)"/>
<path fill-rule="evenodd" clip-rule="evenodd" d="M32 25C28.6863 25 26 27.6863 26 31C26 34.3137 28.6863 37 32 37C35.3137 37 38 34.3137 38 31C38 27.6863 35.3137 25 32 25ZM36.3195 37.7348C38.5334 36.312 40 33.8272 40 31C40 26.5817 36.4183 23 32 23C27.5817 23 24 26.5817 24 31C24 33.8272 25.4666 36.312 27.6805 37.7348C22.6241 39.5155 19 44.3345 19 50C19 50.5523 19.4477 51 20 51C20.5523 51 21 50.5523 21 50C21 43.9249 25.9249 39 32 39C38.0751 39 43 43.9249 43 50C43 50.5523 43.4477 51 44 51C44.5523 51 45 50.5523 45 50C45 44.3345 41.3759 39.5155 36.3195 37.7348Z" fill="url(#paint11_radial_9207_49864)" fill-opacity="0.2"/>
<path d="M55 24L43 24" stroke="white" stroke-width="2" stroke-miterlimit="10" stroke-linecap="round"/>
<path d="M55 24L43 24" stroke="url(#paint12_radial_9207_49864)" stroke-width="2" stroke-miterlimit="10" stroke-linecap="round"/>
<path d="M55 24L43 24" stroke="url(#paint13_radial_9207_49864)" stroke-width="2" stroke-miterlimit="10" stroke-linecap="round"/>
<path d="M55 24L43 24" stroke="url(#paint14_radial_9207_49864)" stroke-width="2" stroke-miterlimit="10" stroke-linecap="round"/>
<path d="M55 24L43 24" stroke="url(#paint15_radial_9207_49864)" stroke-opacity="0.2" stroke-width="2" stroke-miterlimit="10" stroke-linecap="round"/>
<path d="M49 30L49 18" stroke="white" stroke-width="2" stroke-miterlimit="10" stroke-linecap="round"/>
<path d="M49 30L49 18" stroke="url(#paint16_radial_9207_49864)" stroke-width="2" stroke-miterlimit="10" stroke-linecap="round"/>
<path d="M49 30L49 18" stroke="url(#paint17_radial_9207_49864)" stroke-width="2" stroke-miterlimit="10" stroke-linecap="round"/>
<path d="M49 30L49 18" stroke="url(#paint18_radial_9207_49864)" stroke-width="2" stroke-miterlimit="10" stroke-linecap="round"/>
<path d="M49 30L49 18" stroke="url(#paint19_radial_9207_49864)" stroke-opacity="0.2" stroke-width="2" stroke-miterlimit="10" stroke-linecap="round"/>
<defs>
<radialGradient id="paint0_radial_9207_49864" cx="0" cy="0" r="1" gradientUnits="userSpaceOnUse" gradientTransform="translate(67.7727 -10) rotate(132.274) scale(100.008 85.1944)">
<stop stop-color="#00BFA5" stop-opacity="0.06"/>
<stop offset="0.422699" stop-color="#00BFA5" stop-opacity="0.8"/>
<stop offset="1" stop-color="#00BFA5" stop-opacity="0.8"/>
</radialGradient>
<radialGradient id="paint1_radial_9207_49864" cx="0" cy="0" r="1" gradientUnits="userSpaceOnUse" gradientTransform="translate(22.1364 70) rotate(-48.4127) scale(56.1539 66.5962)">
<stop stop-color="#0075FF" stop-opacity="0.8"/>
<stop offset="1" stop-color="#0075FF" stop-opacity="0"/>
</radialGradient>
<radialGradient id="paint2_radial_9207_49864" cx="0" cy="0" r="1" gradientUnits="userSpaceOnUse" gradientTransform="translate(13.4091 -14.5) rotate(93.8811) scale(67.154 54.7052)">
<stop stop-color="#B8FF20"/>
<stop offset="1" stop-color="white" stop-opacity="0.2"/>
</radialGradient>
<radialGradient id="paint3_radial_9207_49864" cx="0" cy="0" r="1" gradientUnits="userSpaceOnUse" gradientTransform="translate(32.5 11) rotate(90) scale(53 70.5455)">
<stop stop-color="white"/>
<stop offset="1" stop-color="white" stop-opacity="0.2"/>
</radialGradient>
<radialGradient id="paint4_radial_9207_49864" cx="0" cy="0" r="1" gradientUnits="userSpaceOnUse" gradientTransform="translate(33.4663 11.625) rotate(123.546) scale(38.8451 30.6201)">
<stop stop-color="#00BFA5" stop-opacity="0.06"/>
<stop offset="0.422699" stop-color="#00BFA5" stop-opacity="0.8"/>
<stop offset="1" stop-color="#00BFA5" stop-opacity="0.8"/>
</radialGradient>
<radialGradient id="paint5_radial_9207_49864" cx="0" cy="0" r="1" gradientUnits="userSpaceOnUse" gradientTransform="translate(18.904 46.625) rotate(-57.0864) scale(21.8883 23.8514)">
<stop stop-color="#0075FF" stop-opacity="0.8"/>
<stop offset="1" stop-color="#0075FF" stop-opacity="0"/>
</radialGradient>
<radialGradient id="paint6_radial_9207_49864" cx="0" cy="0" r="1" gradientUnits="userSpaceOnUse" gradientTransform="translate(16.1192 9.65625) rotate(92.8328) scale(29.3484 17.4749)">
<stop stop-color="#B8FF20"/>
<stop offset="1" stop-color="white" stop-opacity="0.2"/>
</radialGradient>
<radialGradient id="paint7_radial_9207_49864" cx="0" cy="0" r="1" gradientUnits="userSpaceOnUse" gradientTransform="translate(22.211 20.8125) rotate(90) scale(23.1875 22.5106)">
<stop stop-color="white"/>
<stop offset="1" stop-color="white" stop-opacity="0.2"/>
</radialGradient>
<radialGradient id="paint8_radial_9207_49864" cx="0" cy="0" r="1" gradientUnits="userSpaceOnUse" gradientTransform="translate(46.3295 18.625) rotate(130.17) scale(42.368 35.7421)">
<stop stop-color="#00BFA5" stop-opacity="0.06"/>
<stop offset="0.422699" stop-color="#00BFA5" stop-opacity="0.8"/>
<stop offset="1" stop-color="#00BFA5" stop-opacity="0.8"/>
</radialGradient>
<radialGradient id="paint9_radial_9207_49864" cx="0" cy="0" r="1" gradientUnits="userSpaceOnUse" gradientTransform="translate(27.7898 53.625) rotate(-50.5095) scale(23.8101 27.9151)">
<stop stop-color="#0075FF" stop-opacity="0.8"/>
<stop offset="1" stop-color="#0075FF" stop-opacity="0"/>
</radialGradient>
<radialGradient id="paint10_radial_9207_49864" cx="0" cy="0" r="1" gradientUnits="userSpaceOnUse" gradientTransform="translate(24.2443 16.6563) rotate(93.6047) scale(29.3706 22.231)">
<stop stop-color="#B8FF20"/>
<stop offset="1" stop-color="white" stop-opacity="0.2"/>
</radialGradient>
<radialGradient id="paint11_radial_9207_49864" cx="0" cy="0" r="1" gradientUnits="userSpaceOnUse" gradientTransform="translate(32 27.8125) rotate(90) scale(23.1875 28.6591)">
<stop stop-color="white"/>
<stop offset="1" stop-color="white" stop-opacity="0.2"/>
</radialGradient>
<radialGradient id="paint12_radial_9207_49864" cx="0" cy="0" r="1" gradientUnits="userSpaceOnUse" gradientTransform="translate(56.875 25.0511) rotate(-175.668) scale(13.9148 1.79387)">
<stop stop-color="#00BFA5" stop-opacity="0.06"/>
<stop offset="0.422699" stop-color="#00BFA5" stop-opacity="0.8"/>
<stop offset="1" stop-color="#00BFA5" stop-opacity="0.8"/>
</radialGradient>
<radialGradient id="paint13_radial_9207_49864" cx="0" cy="0" r="1" gradientUnits="userSpaceOnUse" gradientTransform="translate(41.875 24.3381) rotate(4.22954) scale(7.89651 1.38744)">
<stop stop-color="#0075FF" stop-opacity="0.8"/>
<stop offset="1" stop-color="#0075FF" stop-opacity="0"/>
</radialGradient>
<radialGradient id="paint14_radial_9207_49864" cx="0" cy="0" r="1" gradientUnits="userSpaceOnUse" gradientTransform="translate(57.7187 24.2017) rotate(-179.676) scale(12.5627 0.85672)">
<stop stop-color="#B8FF20"/>
<stop offset="1" stop-color="white" stop-opacity="0.2"/>
</radialGradient>
<radialGradient id="paint15_radial_9207_49864" cx="0" cy="0" r="1" gradientUnits="userSpaceOnUse" gradientTransform="translate(52.9375 24.5) rotate(-180) scale(9.9375 1.10227)">
<stop stop-color="white"/>
<stop offset="1" stop-color="white" stop-opacity="0.2"/>
</radialGradient>
<radialGradient id="paint16_radial_9207_49864" cx="0" cy="0" r="1" gradientUnits="userSpaceOnUse" gradientTransform="translate(50.0511 31.875) rotate(-94.3323) scale(13.9148 1.79387)">
<stop stop-color="#00BFA5" stop-opacity="0.06"/>
<stop offset="0.422699" stop-color="#00BFA5" stop-opacity="0.8"/>
<stop offset="1" stop-color="#00BFA5" stop-opacity="0.8"/>
</radialGradient>
<radialGradient id="paint17_radial_9207_49864" cx="0" cy="0" r="1" gradientUnits="userSpaceOnUse" gradientTransform="translate(49.3381 16.875) rotate(85.7705) scale(7.89651 1.38744)">
<stop stop-color="#0075FF" stop-opacity="0.8"/>
<stop offset="1" stop-color="#0075FF" stop-opacity="0"/>
</radialGradient>
<radialGradient id="paint18_radial_9207_49864" cx="0" cy="0" r="1" gradientUnits="userSpaceOnUse" gradientTransform="translate(49.2017 32.7187) rotate(-90.3239) scale(12.5627 0.85672)">
<stop stop-color="#B8FF20"/>
<stop offset="1" stop-color="white" stop-opacity="0.2"/>
</radialGradient>
<radialGradient id="paint19_radial_9207_49864" cx="0" cy="0" r="1" gradientUnits="userSpaceOnUse" gradientTransform="translate(49.5 27.9375) rotate(-90) scale(9.9375 1.10227)">
<stop stop-color="white"/>
<stop offset="1" stop-color="white" stop-opacity="0.2"/>
</radialGradient>
</defs>
</svg>
