<svg width="82" height="19" viewBox="0 0 82 19" fill="none" xmlns="http://www.w3.org/2000/svg">
<path d="M0.68 18.5V1.22H3.608L11.624 13.4V1.22H14.552V18.5H11.624L3.608 6.32V18.5H0.68ZM24.2786 18.86C22.9666 18.86 21.8146 18.576 20.8226 18.008C19.8306 17.44 19.0546 16.652 18.4946 15.644C17.9426 14.636 17.6666 13.476 17.6666 12.164C17.6666 10.748 17.9386 9.52 18.4826 8.48C19.0266 7.432 19.7826 6.62 20.7506 6.044C21.7186 5.468 22.8386 5.18 24.1106 5.18C25.4546 5.18 26.5946 5.496 27.5306 6.128C28.4746 6.752 29.1746 7.636 29.6306 8.78C30.0866 9.924 30.2586 11.272 30.1466 12.824H27.2786V11.768C27.2706 10.36 27.0226 9.332 26.5346 8.684C26.0466 8.036 25.2786 7.712 24.2306 7.712C23.0466 7.712 22.1666 8.08 21.5906 8.816C21.0146 9.544 20.7266 10.612 20.7266 12.02C20.7266 13.332 21.0146 14.348 21.5906 15.068C22.1666 15.788 23.0066 16.148 24.1106 16.148C24.8226 16.148 25.4346 15.992 25.9466 15.68C26.4666 15.36 26.8666 14.9 27.1466 14.3L30.0026 15.164C29.5066 16.332 28.7386 17.24 27.6986 17.888C26.6666 18.536 25.5266 18.86 24.2786 18.86ZM19.8146 12.824V10.64H28.7306V12.824H19.8146ZM39.5321 18.86C38.2681 18.86 37.2081 18.56 36.3521 17.96C35.4961 17.36 34.8521 16.544 34.4201 15.512C33.9881 14.472 33.7721 13.308 33.7721 12.02C33.7721 10.716 33.9881 9.548 34.4201 8.516C34.8521 7.484 35.4841 6.672 36.3161 6.08C37.1561 5.48 38.1921 5.18 39.4241 5.18C40.6481 5.18 41.7081 5.48 42.6041 6.08C43.5081 6.672 44.2081 7.484 44.7041 8.516C45.2001 9.54 45.4481 10.708 45.4481 12.02C45.4481 13.316 45.2041 14.48 44.7161 15.512C44.2281 16.544 43.5401 17.36 42.6521 17.96C41.7641 18.56 40.7241 18.86 39.5321 18.86ZM33.2801 18.5V1.22H36.1961V9.404H35.8361V18.5H33.2801ZM39.0881 16.268C39.8401 16.268 40.4601 16.08 40.9481 15.704C41.4361 15.328 41.7961 14.82 42.0281 14.18C42.2681 13.532 42.3881 12.812 42.3881 12.02C42.3881 11.236 42.2681 10.524 42.0281 9.884C41.7881 9.236 41.4161 8.724 40.9121 8.348C40.4081 7.964 39.7681 7.772 38.9921 7.772C38.2561 7.772 37.6561 7.952 37.1921 8.312C36.7281 8.664 36.3841 9.16 36.1601 9.8C35.9441 10.432 35.8361 11.172 35.8361 12.02C35.8361 12.86 35.9441 13.6 36.1601 14.24C36.3841 14.88 36.7321 15.38 37.2041 15.74C37.6841 16.092 38.3121 16.268 39.0881 16.268ZM53.4331 18.872C52.4731 18.872 51.6811 18.712 51.0571 18.392C50.4331 18.072 49.9371 17.664 49.5691 17.168C49.2011 16.672 48.9291 16.144 48.7531 15.584C48.5771 15.024 48.4611 14.496 48.4051 14C48.3571 13.496 48.3331 13.088 48.3331 12.776V5.54H51.2611V11.78C51.2611 12.18 51.2891 12.632 51.3451 13.136C51.4011 13.632 51.5291 14.112 51.7291 14.576C51.9371 15.032 52.2411 15.408 52.6411 15.704C53.0491 16 53.5971 16.148 54.2851 16.148C54.6531 16.148 55.0171 16.088 55.3771 15.968C55.7371 15.848 56.0611 15.644 56.3491 15.356C56.6451 15.06 56.8811 14.656 57.0571 14.144C57.2331 13.632 57.3211 12.984 57.3211 12.2L59.0371 12.932C59.0371 14.036 58.8211 15.036 58.3891 15.932C57.9651 16.828 57.3371 17.544 56.5051 18.08C55.6731 18.608 54.6491 18.872 53.4331 18.872ZM57.6691 18.5V14.48H57.3211V5.54H60.2251V18.5H57.6691ZM64.3166 18.5V0.86H67.2086V18.5H64.3166ZM74.9071 18.86C73.9711 18.86 73.1791 18.684 72.5311 18.332C71.8831 17.972 71.3911 17.496 71.0551 16.904C70.7271 16.312 70.5631 15.66 70.5631 14.948C70.5631 14.324 70.6671 13.764 70.8751 13.268C71.0831 12.764 71.4031 12.332 71.8351 11.972C72.2671 11.604 72.8271 11.304 73.5151 11.072C74.0351 10.904 74.6431 10.752 75.3391 10.616C76.0431 10.48 76.8031 10.356 77.6191 10.244C78.4431 10.124 79.3031 9.996 80.1991 9.86L79.1671 10.448C79.1751 9.552 78.9751 8.892 78.5671 8.468C78.1591 8.044 77.4711 7.832 76.5031 7.832C75.9191 7.832 75.3551 7.968 74.8111 8.24C74.2671 8.512 73.8871 8.98 73.6711 9.644L71.0311 8.816C71.3511 7.72 71.9591 6.84 72.8551 6.176C73.7591 5.512 74.9751 5.18 76.5031 5.18C77.6551 5.18 78.6671 5.368 79.5391 5.744C80.4191 6.12 81.0711 6.736 81.4951 7.592C81.7271 8.048 81.8671 8.516 81.9151 8.996C81.9631 9.468 81.9871 9.984 81.9871 10.544V18.5H79.4551V15.692L79.8751 16.148C79.2911 17.084 78.6071 17.772 77.8231 18.212C77.0471 18.644 76.0751 18.86 74.9071 18.86ZM75.4831 16.556C76.1391 16.556 76.6991 16.44 77.1631 16.208C77.6271 15.976 77.9951 15.692 78.2671 15.356C78.5471 15.02 78.7351 14.704 78.8311 14.408C78.9831 14.04 79.0671 13.62 79.0831 13.148C79.1071 12.668 79.1191 12.28 79.1191 11.984L80.0071 12.248C79.1351 12.384 78.3871 12.504 77.7631 12.608C77.1391 12.712 76.6031 12.812 76.1551 12.908C75.7071 12.996 75.3111 13.096 74.9671 13.208C74.6311 13.328 74.3471 13.468 74.1151 13.628C73.8831 13.788 73.7031 13.972 73.5751 14.18C73.4551 14.388 73.3951 14.632 73.3951 14.912C73.3951 15.232 73.4751 15.516 73.6351 15.764C73.7951 16.004 74.0271 16.196 74.3311 16.34C74.6431 16.484 75.0271 16.556 75.4831 16.556Z" fill="white"/>
<path d="M0.68 18.5V1.22H3.608L11.624 13.4V1.22H14.552V18.5H11.624L3.608 6.32V18.5H0.68ZM24.2786 18.86C22.9666 18.86 21.8146 18.576 20.8226 18.008C19.8306 17.44 19.0546 16.652 18.4946 15.644C17.9426 14.636 17.6666 13.476 17.6666 12.164C17.6666 10.748 17.9386 9.52 18.4826 8.48C19.0266 7.432 19.7826 6.62 20.7506 6.044C21.7186 5.468 22.8386 5.18 24.1106 5.18C25.4546 5.18 26.5946 5.496 27.5306 6.128C28.4746 6.752 29.1746 7.636 29.6306 8.78C30.0866 9.924 30.2586 11.272 30.1466 12.824H27.2786V11.768C27.2706 10.36 27.0226 9.332 26.5346 8.684C26.0466 8.036 25.2786 7.712 24.2306 7.712C23.0466 7.712 22.1666 8.08 21.5906 8.816C21.0146 9.544 20.7266 10.612 20.7266 12.02C20.7266 13.332 21.0146 14.348 21.5906 15.068C22.1666 15.788 23.0066 16.148 24.1106 16.148C24.8226 16.148 25.4346 15.992 25.9466 15.68C26.4666 15.36 26.8666 14.9 27.1466 14.3L30.0026 15.164C29.5066 16.332 28.7386 17.24 27.6986 17.888C26.6666 18.536 25.5266 18.86 24.2786 18.86ZM19.8146 12.824V10.64H28.7306V12.824H19.8146ZM39.5321 18.86C38.2681 18.86 37.2081 18.56 36.3521 17.96C35.4961 17.36 34.8521 16.544 34.4201 15.512C33.9881 14.472 33.7721 13.308 33.7721 12.02C33.7721 10.716 33.9881 9.548 34.4201 8.516C34.8521 7.484 35.4841 6.672 36.3161 6.08C37.1561 5.48 38.1921 5.18 39.4241 5.18C40.6481 5.18 41.7081 5.48 42.6041 6.08C43.5081 6.672 44.2081 7.484 44.7041 8.516C45.2001 9.54 45.4481 10.708 45.4481 12.02C45.4481 13.316 45.2041 14.48 44.7161 15.512C44.2281 16.544 43.5401 17.36 42.6521 17.96C41.7641 18.56 40.7241 18.86 39.5321 18.86ZM33.2801 18.5V1.22H36.1961V9.404H35.8361V18.5H33.2801ZM39.0881 16.268C39.8401 16.268 40.4601 16.08 40.9481 15.704C41.4361 15.328 41.7961 14.82 42.0281 14.18C42.2681 13.532 42.3881 12.812 42.3881 12.02C42.3881 11.236 42.2681 10.524 42.0281 9.884C41.7881 9.236 41.4161 8.724 40.9121 8.348C40.4081 7.964 39.7681 7.772 38.9921 7.772C38.2561 7.772 37.6561 7.952 37.1921 8.312C36.7281 8.664 36.3841 9.16 36.1601 9.8C35.9441 10.432 35.8361 11.172 35.8361 12.02C35.8361 12.86 35.9441 13.6 36.1601 14.24C36.3841 14.88 36.7321 15.38 37.2041 15.74C37.6841 16.092 38.3121 16.268 39.0881 16.268ZM53.4331 18.872C52.4731 18.872 51.6811 18.712 51.0571 18.392C50.4331 18.072 49.9371 17.664 49.5691 17.168C49.2011 16.672 48.9291 16.144 48.7531 15.584C48.5771 15.024 48.4611 14.496 48.4051 14C48.3571 13.496 48.3331 13.088 48.3331 12.776V5.54H51.2611V11.78C51.2611 12.18 51.2891 12.632 51.3451 13.136C51.4011 13.632 51.5291 14.112 51.7291 14.576C51.9371 15.032 52.2411 15.408 52.6411 15.704C53.0491 16 53.5971 16.148 54.2851 16.148C54.6531 16.148 55.0171 16.088 55.3771 15.968C55.7371 15.848 56.0611 15.644 56.3491 15.356C56.6451 15.06 56.8811 14.656 57.0571 14.144C57.2331 13.632 57.3211 12.984 57.3211 12.2L59.0371 12.932C59.0371 14.036 58.8211 15.036 58.3891 15.932C57.9651 16.828 57.3371 17.544 56.5051 18.08C55.6731 18.608 54.6491 18.872 53.4331 18.872ZM57.6691 18.5V14.48H57.3211V5.54H60.2251V18.5H57.6691ZM64.3166 18.5V0.86H67.2086V18.5H64.3166ZM74.9071 18.86C73.9711 18.86 73.1791 18.684 72.5311 18.332C71.8831 17.972 71.3911 17.496 71.0551 16.904C70.7271 16.312 70.5631 15.66 70.5631 14.948C70.5631 14.324 70.6671 13.764 70.8751 13.268C71.0831 12.764 71.4031 12.332 71.8351 11.972C72.2671 11.604 72.8271 11.304 73.5151 11.072C74.0351 10.904 74.6431 10.752 75.3391 10.616C76.0431 10.48 76.8031 10.356 77.6191 10.244C78.4431 10.124 79.3031 9.996 80.1991 9.86L79.1671 10.448C79.1751 9.552 78.9751 8.892 78.5671 8.468C78.1591 8.044 77.4711 7.832 76.5031 7.832C75.9191 7.832 75.3551 7.968 74.8111 8.24C74.2671 8.512 73.8871 8.98 73.6711 9.644L71.0311 8.816C71.3511 7.72 71.9591 6.84 72.8551 6.176C73.7591 5.512 74.9751 5.18 76.5031 5.18C77.6551 5.18 78.6671 5.368 79.5391 5.744C80.4191 6.12 81.0711 6.736 81.4951 7.592C81.7271 8.048 81.8671 8.516 81.9151 8.996C81.9631 9.468 81.9871 9.984 81.9871 10.544V18.5H79.4551V15.692L79.8751 16.148C79.2911 17.084 78.6071 17.772 77.8231 18.212C77.0471 18.644 76.0751 18.86 74.9071 18.86ZM75.4831 16.556C76.1391 16.556 76.6991 16.44 77.1631 16.208C77.6271 15.976 77.9951 15.692 78.2671 15.356C78.5471 15.02 78.7351 14.704 78.8311 14.408C78.9831 14.04 79.0671 13.62 79.0831 13.148C79.1071 12.668 79.1191 12.28 79.1191 11.984L80.0071 12.248C79.1351 12.384 78.3871 12.504 77.7631 12.608C77.1391 12.712 76.6031 12.812 76.1551 12.908C75.7071 12.996 75.3111 13.096 74.9671 13.208C74.6311 13.328 74.3471 13.468 74.1151 13.628C73.8831 13.788 73.7031 13.972 73.5751 14.18C73.4551 14.388 73.3951 14.632 73.3951 14.912C73.3951 15.232 73.4751 15.516 73.6351 15.764C73.7951 16.004 74.0271 16.196 74.3311 16.34C74.6431 16.484 75.0271 16.556 75.4831 16.556Z" fill="url(#paint0_radial_9332_7495)"/>
<path d="M0.68 18.5V1.22H3.608L11.624 13.4V1.22H14.552V18.5H11.624L3.608 6.32V18.5H0.68ZM24.2786 18.86C22.9666 18.86 21.8146 18.576 20.8226 18.008C19.8306 17.44 19.0546 16.652 18.4946 15.644C17.9426 14.636 17.6666 13.476 17.6666 12.164C17.6666 10.748 17.9386 9.52 18.4826 8.48C19.0266 7.432 19.7826 6.62 20.7506 6.044C21.7186 5.468 22.8386 5.18 24.1106 5.18C25.4546 5.18 26.5946 5.496 27.5306 6.128C28.4746 6.752 29.1746 7.636 29.6306 8.78C30.0866 9.924 30.2586 11.272 30.1466 12.824H27.2786V11.768C27.2706 10.36 27.0226 9.332 26.5346 8.684C26.0466 8.036 25.2786 7.712 24.2306 7.712C23.0466 7.712 22.1666 8.08 21.5906 8.816C21.0146 9.544 20.7266 10.612 20.7266 12.02C20.7266 13.332 21.0146 14.348 21.5906 15.068C22.1666 15.788 23.0066 16.148 24.1106 16.148C24.8226 16.148 25.4346 15.992 25.9466 15.68C26.4666 15.36 26.8666 14.9 27.1466 14.3L30.0026 15.164C29.5066 16.332 28.7386 17.24 27.6986 17.888C26.6666 18.536 25.5266 18.86 24.2786 18.86ZM19.8146 12.824V10.64H28.7306V12.824H19.8146ZM39.5321 18.86C38.2681 18.86 37.2081 18.56 36.3521 17.96C35.4961 17.36 34.8521 16.544 34.4201 15.512C33.9881 14.472 33.7721 13.308 33.7721 12.02C33.7721 10.716 33.9881 9.548 34.4201 8.516C34.8521 7.484 35.4841 6.672 36.3161 6.08C37.1561 5.48 38.1921 5.18 39.4241 5.18C40.6481 5.18 41.7081 5.48 42.6041 6.08C43.5081 6.672 44.2081 7.484 44.7041 8.516C45.2001 9.54 45.4481 10.708 45.4481 12.02C45.4481 13.316 45.2041 14.48 44.7161 15.512C44.2281 16.544 43.5401 17.36 42.6521 17.96C41.7641 18.56 40.7241 18.86 39.5321 18.86ZM33.2801 18.5V1.22H36.1961V9.404H35.8361V18.5H33.2801ZM39.0881 16.268C39.8401 16.268 40.4601 16.08 40.9481 15.704C41.4361 15.328 41.7961 14.82 42.0281 14.18C42.2681 13.532 42.3881 12.812 42.3881 12.02C42.3881 11.236 42.2681 10.524 42.0281 9.884C41.7881 9.236 41.4161 8.724 40.9121 8.348C40.4081 7.964 39.7681 7.772 38.9921 7.772C38.2561 7.772 37.6561 7.952 37.1921 8.312C36.7281 8.664 36.3841 9.16 36.1601 9.8C35.9441 10.432 35.8361 11.172 35.8361 12.02C35.8361 12.86 35.9441 13.6 36.1601 14.24C36.3841 14.88 36.7321 15.38 37.2041 15.74C37.6841 16.092 38.3121 16.268 39.0881 16.268ZM53.4331 18.872C52.4731 18.872 51.6811 18.712 51.0571 18.392C50.4331 18.072 49.9371 17.664 49.5691 17.168C49.2011 16.672 48.9291 16.144 48.7531 15.584C48.5771 15.024 48.4611 14.496 48.4051 14C48.3571 13.496 48.3331 13.088 48.3331 12.776V5.54H51.2611V11.78C51.2611 12.18 51.2891 12.632 51.3451 13.136C51.4011 13.632 51.5291 14.112 51.7291 14.576C51.9371 15.032 52.2411 15.408 52.6411 15.704C53.0491 16 53.5971 16.148 54.2851 16.148C54.6531 16.148 55.0171 16.088 55.3771 15.968C55.7371 15.848 56.0611 15.644 56.3491 15.356C56.6451 15.06 56.8811 14.656 57.0571 14.144C57.2331 13.632 57.3211 12.984 57.3211 12.2L59.0371 12.932C59.0371 14.036 58.8211 15.036 58.3891 15.932C57.9651 16.828 57.3371 17.544 56.5051 18.08C55.6731 18.608 54.6491 18.872 53.4331 18.872ZM57.6691 18.5V14.48H57.3211V5.54H60.2251V18.5H57.6691ZM64.3166 18.5V0.86H67.2086V18.5H64.3166ZM74.9071 18.86C73.9711 18.86 73.1791 18.684 72.5311 18.332C71.8831 17.972 71.3911 17.496 71.0551 16.904C70.7271 16.312 70.5631 15.66 70.5631 14.948C70.5631 14.324 70.6671 13.764 70.8751 13.268C71.0831 12.764 71.4031 12.332 71.8351 11.972C72.2671 11.604 72.8271 11.304 73.5151 11.072C74.0351 10.904 74.6431 10.752 75.3391 10.616C76.0431 10.48 76.8031 10.356 77.6191 10.244C78.4431 10.124 79.3031 9.996 80.1991 9.86L79.1671 10.448C79.1751 9.552 78.9751 8.892 78.5671 8.468C78.1591 8.044 77.4711 7.832 76.5031 7.832C75.9191 7.832 75.3551 7.968 74.8111 8.24C74.2671 8.512 73.8871 8.98 73.6711 9.644L71.0311 8.816C71.3511 7.72 71.9591 6.84 72.8551 6.176C73.7591 5.512 74.9751 5.18 76.5031 5.18C77.6551 5.18 78.6671 5.368 79.5391 5.744C80.4191 6.12 81.0711 6.736 81.4951 7.592C81.7271 8.048 81.8671 8.516 81.9151 8.996C81.9631 9.468 81.9871 9.984 81.9871 10.544V18.5H79.4551V15.692L79.8751 16.148C79.2911 17.084 78.6071 17.772 77.8231 18.212C77.0471 18.644 76.0751 18.86 74.9071 18.86ZM75.4831 16.556C76.1391 16.556 76.6991 16.44 77.1631 16.208C77.6271 15.976 77.9951 15.692 78.2671 15.356C78.5471 15.02 78.7351 14.704 78.8311 14.408C78.9831 14.04 79.0671 13.62 79.0831 13.148C79.1071 12.668 79.1191 12.28 79.1191 11.984L80.0071 12.248C79.1351 12.384 78.3871 12.504 77.7631 12.608C77.1391 12.712 76.6031 12.812 76.1551 12.908C75.7071 12.996 75.3111 13.096 74.9671 13.208C74.6311 13.328 74.3471 13.468 74.1151 13.628C73.8831 13.788 73.7031 13.972 73.5751 14.18C73.4551 14.388 73.3951 14.632 73.3951 14.912C73.3951 15.232 73.4751 15.516 73.6351 15.764C73.7951 16.004 74.0271 16.196 74.3311 16.34C74.6431 16.484 75.0271 16.556 75.4831 16.556Z" fill="url(#paint1_radial_9332_7495)"/>
<path d="M0.68 18.5V1.22H3.608L11.624 13.4V1.22H14.552V18.5H11.624L3.608 6.32V18.5H0.68ZM24.2786 18.86C22.9666 18.86 21.8146 18.576 20.8226 18.008C19.8306 17.44 19.0546 16.652 18.4946 15.644C17.9426 14.636 17.6666 13.476 17.6666 12.164C17.6666 10.748 17.9386 9.52 18.4826 8.48C19.0266 7.432 19.7826 6.62 20.7506 6.044C21.7186 5.468 22.8386 5.18 24.1106 5.18C25.4546 5.18 26.5946 5.496 27.5306 6.128C28.4746 6.752 29.1746 7.636 29.6306 8.78C30.0866 9.924 30.2586 11.272 30.1466 12.824H27.2786V11.768C27.2706 10.36 27.0226 9.332 26.5346 8.684C26.0466 8.036 25.2786 7.712 24.2306 7.712C23.0466 7.712 22.1666 8.08 21.5906 8.816C21.0146 9.544 20.7266 10.612 20.7266 12.02C20.7266 13.332 21.0146 14.348 21.5906 15.068C22.1666 15.788 23.0066 16.148 24.1106 16.148C24.8226 16.148 25.4346 15.992 25.9466 15.68C26.4666 15.36 26.8666 14.9 27.1466 14.3L30.0026 15.164C29.5066 16.332 28.7386 17.24 27.6986 17.888C26.6666 18.536 25.5266 18.86 24.2786 18.86ZM19.8146 12.824V10.64H28.7306V12.824H19.8146ZM39.5321 18.86C38.2681 18.86 37.2081 18.56 36.3521 17.96C35.4961 17.36 34.8521 16.544 34.4201 15.512C33.9881 14.472 33.7721 13.308 33.7721 12.02C33.7721 10.716 33.9881 9.548 34.4201 8.516C34.8521 7.484 35.4841 6.672 36.3161 6.08C37.1561 5.48 38.1921 5.18 39.4241 5.18C40.6481 5.18 41.7081 5.48 42.6041 6.08C43.5081 6.672 44.2081 7.484 44.7041 8.516C45.2001 9.54 45.4481 10.708 45.4481 12.02C45.4481 13.316 45.2041 14.48 44.7161 15.512C44.2281 16.544 43.5401 17.36 42.6521 17.96C41.7641 18.56 40.7241 18.86 39.5321 18.86ZM33.2801 18.5V1.22H36.1961V9.404H35.8361V18.5H33.2801ZM39.0881 16.268C39.8401 16.268 40.4601 16.08 40.9481 15.704C41.4361 15.328 41.7961 14.82 42.0281 14.18C42.2681 13.532 42.3881 12.812 42.3881 12.02C42.3881 11.236 42.2681 10.524 42.0281 9.884C41.7881 9.236 41.4161 8.724 40.9121 8.348C40.4081 7.964 39.7681 7.772 38.9921 7.772C38.2561 7.772 37.6561 7.952 37.1921 8.312C36.7281 8.664 36.3841 9.16 36.1601 9.8C35.9441 10.432 35.8361 11.172 35.8361 12.02C35.8361 12.86 35.9441 13.6 36.1601 14.24C36.3841 14.88 36.7321 15.38 37.2041 15.74C37.6841 16.092 38.3121 16.268 39.0881 16.268ZM53.4331 18.872C52.4731 18.872 51.6811 18.712 51.0571 18.392C50.4331 18.072 49.9371 17.664 49.5691 17.168C49.2011 16.672 48.9291 16.144 48.7531 15.584C48.5771 15.024 48.4611 14.496 48.4051 14C48.3571 13.496 48.3331 13.088 48.3331 12.776V5.54H51.2611V11.78C51.2611 12.18 51.2891 12.632 51.3451 13.136C51.4011 13.632 51.5291 14.112 51.7291 14.576C51.9371 15.032 52.2411 15.408 52.6411 15.704C53.0491 16 53.5971 16.148 54.2851 16.148C54.6531 16.148 55.0171 16.088 55.3771 15.968C55.7371 15.848 56.0611 15.644 56.3491 15.356C56.6451 15.06 56.8811 14.656 57.0571 14.144C57.2331 13.632 57.3211 12.984 57.3211 12.2L59.0371 12.932C59.0371 14.036 58.8211 15.036 58.3891 15.932C57.9651 16.828 57.3371 17.544 56.5051 18.08C55.6731 18.608 54.6491 18.872 53.4331 18.872ZM57.6691 18.5V14.48H57.3211V5.54H60.2251V18.5H57.6691ZM64.3166 18.5V0.86H67.2086V18.5H64.3166ZM74.9071 18.86C73.9711 18.86 73.1791 18.684 72.5311 18.332C71.8831 17.972 71.3911 17.496 71.0551 16.904C70.7271 16.312 70.5631 15.66 70.5631 14.948C70.5631 14.324 70.6671 13.764 70.8751 13.268C71.0831 12.764 71.4031 12.332 71.8351 11.972C72.2671 11.604 72.8271 11.304 73.5151 11.072C74.0351 10.904 74.6431 10.752 75.3391 10.616C76.0431 10.48 76.8031 10.356 77.6191 10.244C78.4431 10.124 79.3031 9.996 80.1991 9.86L79.1671 10.448C79.1751 9.552 78.9751 8.892 78.5671 8.468C78.1591 8.044 77.4711 7.832 76.5031 7.832C75.9191 7.832 75.3551 7.968 74.8111 8.24C74.2671 8.512 73.8871 8.98 73.6711 9.644L71.0311 8.816C71.3511 7.72 71.9591 6.84 72.8551 6.176C73.7591 5.512 74.9751 5.18 76.5031 5.18C77.6551 5.18 78.6671 5.368 79.5391 5.744C80.4191 6.12 81.0711 6.736 81.4951 7.592C81.7271 8.048 81.8671 8.516 81.9151 8.996C81.9631 9.468 81.9871 9.984 81.9871 10.544V18.5H79.4551V15.692L79.8751 16.148C79.2911 17.084 78.6071 17.772 77.8231 18.212C77.0471 18.644 76.0751 18.86 74.9071 18.86ZM75.4831 16.556C76.1391 16.556 76.6991 16.44 77.1631 16.208C77.6271 15.976 77.9951 15.692 78.2671 15.356C78.5471 15.02 78.7351 14.704 78.8311 14.408C78.9831 14.04 79.0671 13.62 79.0831 13.148C79.1071 12.668 79.1191 12.28 79.1191 11.984L80.0071 12.248C79.1351 12.384 78.3871 12.504 77.7631 12.608C77.1391 12.712 76.6031 12.812 76.1551 12.908C75.7071 12.996 75.3111 13.096 74.9671 13.208C74.6311 13.328 74.3471 13.468 74.1151 13.628C73.8831 13.788 73.7031 13.972 73.5751 14.18C73.4551 14.388 73.3951 14.632 73.3951 14.912C73.3951 15.232 73.4751 15.516 73.6351 15.764C73.7951 16.004 74.0271 16.196 74.3311 16.34C74.6431 16.484 75.0271 16.556 75.4831 16.556Z" fill="url(#paint2_radial_9332_7495)"/>
<path d="M0.68 18.5V1.22H3.608L11.624 13.4V1.22H14.552V18.5H11.624L3.608 6.32V18.5H0.68ZM24.2786 18.86C22.9666 18.86 21.8146 18.576 20.8226 18.008C19.8306 17.44 19.0546 16.652 18.4946 15.644C17.9426 14.636 17.6666 13.476 17.6666 12.164C17.6666 10.748 17.9386 9.52 18.4826 8.48C19.0266 7.432 19.7826 6.62 20.7506 6.044C21.7186 5.468 22.8386 5.18 24.1106 5.18C25.4546 5.18 26.5946 5.496 27.5306 6.128C28.4746 6.752 29.1746 7.636 29.6306 8.78C30.0866 9.924 30.2586 11.272 30.1466 12.824H27.2786V11.768C27.2706 10.36 27.0226 9.332 26.5346 8.684C26.0466 8.036 25.2786 7.712 24.2306 7.712C23.0466 7.712 22.1666 8.08 21.5906 8.816C21.0146 9.544 20.7266 10.612 20.7266 12.02C20.7266 13.332 21.0146 14.348 21.5906 15.068C22.1666 15.788 23.0066 16.148 24.1106 16.148C24.8226 16.148 25.4346 15.992 25.9466 15.68C26.4666 15.36 26.8666 14.9 27.1466 14.3L30.0026 15.164C29.5066 16.332 28.7386 17.24 27.6986 17.888C26.6666 18.536 25.5266 18.86 24.2786 18.86ZM19.8146 12.824V10.64H28.7306V12.824H19.8146ZM39.5321 18.86C38.2681 18.86 37.2081 18.56 36.3521 17.96C35.4961 17.36 34.8521 16.544 34.4201 15.512C33.9881 14.472 33.7721 13.308 33.7721 12.02C33.7721 10.716 33.9881 9.548 34.4201 8.516C34.8521 7.484 35.4841 6.672 36.3161 6.08C37.1561 5.48 38.1921 5.18 39.4241 5.18C40.6481 5.18 41.7081 5.48 42.6041 6.08C43.5081 6.672 44.2081 7.484 44.7041 8.516C45.2001 9.54 45.4481 10.708 45.4481 12.02C45.4481 13.316 45.2041 14.48 44.7161 15.512C44.2281 16.544 43.5401 17.36 42.6521 17.96C41.7641 18.56 40.7241 18.86 39.5321 18.86ZM33.2801 18.5V1.22H36.1961V9.404H35.8361V18.5H33.2801ZM39.0881 16.268C39.8401 16.268 40.4601 16.08 40.9481 15.704C41.4361 15.328 41.7961 14.82 42.0281 14.18C42.2681 13.532 42.3881 12.812 42.3881 12.02C42.3881 11.236 42.2681 10.524 42.0281 9.884C41.7881 9.236 41.4161 8.724 40.9121 8.348C40.4081 7.964 39.7681 7.772 38.9921 7.772C38.2561 7.772 37.6561 7.952 37.1921 8.312C36.7281 8.664 36.3841 9.16 36.1601 9.8C35.9441 10.432 35.8361 11.172 35.8361 12.02C35.8361 12.86 35.9441 13.6 36.1601 14.24C36.3841 14.88 36.7321 15.38 37.2041 15.74C37.6841 16.092 38.3121 16.268 39.0881 16.268ZM53.4331 18.872C52.4731 18.872 51.6811 18.712 51.0571 18.392C50.4331 18.072 49.9371 17.664 49.5691 17.168C49.2011 16.672 48.9291 16.144 48.7531 15.584C48.5771 15.024 48.4611 14.496 48.4051 14C48.3571 13.496 48.3331 13.088 48.3331 12.776V5.54H51.2611V11.78C51.2611 12.18 51.2891 12.632 51.3451 13.136C51.4011 13.632 51.5291 14.112 51.7291 14.576C51.9371 15.032 52.2411 15.408 52.6411 15.704C53.0491 16 53.5971 16.148 54.2851 16.148C54.6531 16.148 55.0171 16.088 55.3771 15.968C55.7371 15.848 56.0611 15.644 56.3491 15.356C56.6451 15.06 56.8811 14.656 57.0571 14.144C57.2331 13.632 57.3211 12.984 57.3211 12.2L59.0371 12.932C59.0371 14.036 58.8211 15.036 58.3891 15.932C57.9651 16.828 57.3371 17.544 56.5051 18.08C55.6731 18.608 54.6491 18.872 53.4331 18.872ZM57.6691 18.5V14.48H57.3211V5.54H60.2251V18.5H57.6691ZM64.3166 18.5V0.86H67.2086V18.5H64.3166ZM74.9071 18.86C73.9711 18.86 73.1791 18.684 72.5311 18.332C71.8831 17.972 71.3911 17.496 71.0551 16.904C70.7271 16.312 70.5631 15.66 70.5631 14.948C70.5631 14.324 70.6671 13.764 70.8751 13.268C71.0831 12.764 71.4031 12.332 71.8351 11.972C72.2671 11.604 72.8271 11.304 73.5151 11.072C74.0351 10.904 74.6431 10.752 75.3391 10.616C76.0431 10.48 76.8031 10.356 77.6191 10.244C78.4431 10.124 79.3031 9.996 80.1991 9.86L79.1671 10.448C79.1751 9.552 78.9751 8.892 78.5671 8.468C78.1591 8.044 77.4711 7.832 76.5031 7.832C75.9191 7.832 75.3551 7.968 74.8111 8.24C74.2671 8.512 73.8871 8.98 73.6711 9.644L71.0311 8.816C71.3511 7.72 71.9591 6.84 72.8551 6.176C73.7591 5.512 74.9751 5.18 76.5031 5.18C77.6551 5.18 78.6671 5.368 79.5391 5.744C80.4191 6.12 81.0711 6.736 81.4951 7.592C81.7271 8.048 81.8671 8.516 81.9151 8.996C81.9631 9.468 81.9871 9.984 81.9871 10.544V18.5H79.4551V15.692L79.8751 16.148C79.2911 17.084 78.6071 17.772 77.8231 18.212C77.0471 18.644 76.0751 18.86 74.9071 18.86ZM75.4831 16.556C76.1391 16.556 76.6991 16.44 77.1631 16.208C77.6271 15.976 77.9951 15.692 78.2671 15.356C78.5471 15.02 78.7351 14.704 78.8311 14.408C78.9831 14.04 79.0671 13.62 79.0831 13.148C79.1071 12.668 79.1191 12.28 79.1191 11.984L80.0071 12.248C79.1351 12.384 78.3871 12.504 77.7631 12.608C77.1391 12.712 76.6031 12.812 76.1551 12.908C75.7071 12.996 75.3111 13.096 74.9671 13.208C74.6311 13.328 74.3471 13.468 74.1151 13.628C73.8831 13.788 73.7031 13.972 73.5751 14.18C73.4551 14.388 73.3951 14.632 73.3951 14.912C73.3951 15.232 73.4751 15.516 73.6351 15.764C73.7951 16.004 74.0271 16.196 74.3311 16.34C74.6431 16.484 75.0271 16.556 75.4831 16.556Z" fill="url(#paint3_radial_9332_7495)" fill-opacity="0.2"/>
<defs>
<radialGradient id="paint0_radial_9332_7495" cx="0" cy="0" r="1" gradientUnits="userSpaceOnUse" gradientTransform="translate(27.7358 20.0938) rotate(-12.7003) scale(50.7444 25.9986)">
<stop stop-color="#0075FF" stop-opacity="0.8"/>
<stop offset="0.953677" stop-color="#0075FF" stop-opacity="0"/>
</radialGradient>
<radialGradient id="paint1_radial_9332_7495" cx="0" cy="0" r="1" gradientUnits="userSpaceOnUse" gradientTransform="translate(16.1449 -2.35156) rotate(108.738) scale(18.7929 68.9628)">
<stop stop-color="#B8FF20"/>
<stop offset="1" stop-color="white" stop-opacity="0.2"/>
</radialGradient>
<radialGradient id="paint2_radial_9332_7495" cx="0" cy="0" r="1" gradientUnits="userSpaceOnUse" gradientTransform="translate(88.3466 -1.15625) rotate(167.593) scale(91.4832 32.8558)">
<stop stop-color="#00BFA5" stop-opacity="0.8"/>
<stop offset="1" stop-color="#00BFA5" stop-opacity="0.06"/>
</radialGradient>
<radialGradient id="paint3_radial_9332_7495" cx="0" cy="0" r="1" gradientUnits="userSpaceOnUse" gradientTransform="translate(41.5 4.42188) rotate(90) scale(14.0781 93.6932)">
<stop stop-color="white"/>
<stop offset="1" stop-color="white" stop-opacity="0.2"/>
</radialGradient>
</defs>
</svg>
