<?xml version="1.0" encoding="UTF-8" standalone="no"?>
<!DOCTYPE svg PUBLIC "-//W3C//DTD SVG 20010904//EN"
              "http://www.w3.org/TR/2001/REC-SVG-20010904/DTD/svg10.dtd">

<svg xmlns="http://www.w3.org/2000/svg"
     width="0.0466667in" height="0.0466667in"
     viewBox="0 0 14 14">
  <path id="Imported Path #1"
        fill="none" stroke="black" stroke-width="1"
        d="M 10.47,4.28
           C 10.47,4.28 10.47,11.49 10.47,11.49
             10.47,11.49 11.53,11.49 11.53,11.49
             11.53,11.49 11.53,2.47 11.53,2.47
             11.53,2.47 2.51,2.47 2.51,2.47
             2.51,2.47 2.51,3.53 2.51,3.53
             2.51,3.53 9.72,3.53 9.72,3.53
             9.72,3.53 2.14,11.12 2.14,11.12
             2.14,11.12 2.88,11.86 2.88,11.86
             2.88,11.86 10.47,4.28 10.47,4.28 Z
           M -37.55,0.64" />
</svg>
